<svg width="19" height="45" viewBox="0 0 19 45" fill="none" xmlns="http://www.w3.org/2000/svg">
<path opacity="0.3" fill-rule="evenodd" clip-rule="evenodd" d="M4.86748 44.4531V17.1509C4.3207 17.2564 3.76624 17.3134 3.20636 17.3134H0.171875V5.61547L2.75345 5.2258C3.20514 5.15762 3.76768 5.00106 4.45201 4.71098C5.02417 4.45546 5.56694 4.10702 6.08381 3.65002C6.50254 3.27836 6.81916 2.83962 7.04703 2.30249L7.83161 0.453125H18.9707V44.4531H4.86748ZM5.66186 7.49395C4.78592 7.8673 3.96742 8.11142 3.20636 8.22629V14.2789C3.73809 14.2789 4.2918 14.1973 4.86748 14.034C5.16241 13.9504 5.4631 13.8453 5.76956 13.7189C5.93298 13.6488 6.09007 13.575 6.24084 13.4975C6.92469 13.1458 7.4784 12.717 7.90197 12.2111V41.4186H15.9362V3.48761H9.84052C9.43845 4.43535 8.85688 5.24667 8.09582 5.92157C7.34912 6.58211 6.5378 7.10624 5.66186 7.49395Z" fill="black"/>
</svg>
