<svg width="27" height="45" viewBox="0 0 27 45" fill="none" xmlns="http://www.w3.org/2000/svg">
<path opacity="0.3" fill-rule="evenodd" clip-rule="evenodd" d="M0.804615 44.1719V39.3342C0.804615 37.1512 1.13815 35.0915 1.86553 33.2003L1.86831 33.1931L1.87112 33.1859C2.54674 31.4556 3.41688 29.8444 4.48325 28.3603C5.43967 27.0156 6.44769 25.7016 7.50709 24.4182C8.34098 23.403 9.13676 22.367 9.89462 21.3102H0.933683L0.807479 18.4075C0.794529 18.1097 0.774695 17.7639 0.747407 17.3683L0.743817 17.3162L0.742019 17.2641C0.726594 16.8168 0.71875 16.3811 0.71875 15.9574C0.71875 13.0453 1.02295 10.4267 1.7069 8.16818C2.4505 5.69782 3.83145 3.63589 5.92425 2.20522C8.08008 0.7268 10.8151 0.171875 13.778 0.171875C17.4925 0.171875 20.79 1.23118 23.2353 3.71411C25.703 6.20472 26.7299 9.58249 26.7299 13.3814C26.7299 15.8526 26.412 18.143 25.7081 20.2019L25.7055 20.2095C25.0486 22.1145 24.1696 23.8791 23.0619 25.4902L23.0577 25.4964L23.0535 25.5025C22.0558 26.9385 20.9647 28.3676 19.7819 29.7899L19.7771 29.7958C19.4514 30.1855 19.1293 30.5789 18.8109 30.9761H26.4724V44.1719H0.804615ZM15.1089 30.7906C15.8674 29.7888 16.6474 28.8086 17.4488 27.8497C18.5793 26.4902 19.6169 25.1307 20.5614 23.7711C21.5059 22.3973 22.2644 20.8803 22.8368 19.2203C23.4093 17.5459 23.6955 15.5996 23.6955 13.3814C23.6955 10.1185 22.8225 7.60696 21.0766 5.84672C19.345 4.08648 16.9121 3.20636 13.778 3.20636C11.1448 3.20636 9.09835 3.70724 7.63864 4.709C6.19324 5.69645 5.18432 7.14185 4.61189 9.0452C4.03945 10.9342 3.75323 13.2383 3.75323 15.9574C3.75323 16.3438 3.76039 16.7445 3.7747 17.1595C3.80332 17.5745 3.82479 17.9466 3.8391 18.2757H11.7816V13.6605C11.7816 11.4137 12.4113 10.2903 13.6707 10.2903C14.5007 10.2903 15.0445 10.6122 15.3021 11.2562C15.574 11.8859 15.71 12.6444 15.71 13.5317C15.71 15.3778 15.4238 17.045 14.8513 18.5333C14.8397 18.5641 14.8279 18.5949 14.8161 18.6256C14.4564 19.561 14.027 20.4559 13.5281 21.3102C13.2595 21.7702 12.9707 22.2184 12.6618 22.6549C11.7745 23.9142 10.8371 25.145 9.84968 26.3471C8.8336 27.5778 7.86762 28.8372 6.95172 30.1252C6.03582 31.3988 5.2845 32.787 4.69775 34.2896C4.2536 35.4444 3.98176 36.7155 3.88222 38.1029C3.85347 38.5036 3.8391 38.9141 3.8391 39.3342V41.1374H23.4379V34.0106H13.134C13.6713 32.936 14.2842 31.9245 14.9727 30.9761C15.0178 30.914 15.0632 30.8522 15.1089 30.7906Z" fill="black"/>
</svg>
