<svg width="27" height="45" viewBox="0 0 27 45" fill="none" xmlns="http://www.w3.org/2000/svg">
<path opacity="0.3" fill-rule="evenodd" clip-rule="evenodd" d="M0.828125 23.8668H8.67813V17.7034H1.30449L1.07262 14.9209C1.05574 14.7184 1.03992 14.4867 1.02482 14.2302L1.01959 14.1412V13.35C1.01959 9.5205 1.90585 6.05854 4.3123 3.65208C6.70013 1.26426 10.0778 0.359375 13.8187 0.359375C17.5085 0.359375 20.8257 1.32501 23.1859 3.77966C25.5248 6.21211 26.4264 9.59263 26.4264 13.35C26.4264 15.4381 26.1492 17.3889 25.4532 19.0792L25.4508 19.0851L25.4484 19.0909C25.2299 19.6153 24.9624 20.0963 24.6513 20.5342C24.7005 20.6052 24.7486 20.6772 24.7956 20.7504C25.6015 22.0039 26.0512 23.4407 26.2511 24.9497C26.4301 26.3002 26.5115 27.8668 26.5115 29.6243C26.5115 33.7417 25.6528 37.3831 23.5168 40.1381C21.1686 43.1866 17.4835 44.3594 13.3294 44.3594C9.53744 44.3594 6.11468 43.3531 3.81896 40.6892C1.64587 38.1676 0.828125 34.6918 0.828125 30.8157V23.8668ZM21.1156 38.2827C22.6898 36.2547 23.477 33.3685 23.477 29.6243C23.477 27.9508 23.399 26.5255 23.243 25.3483C23.1008 24.2755 22.8114 23.3617 22.3747 22.607C22.3322 22.5336 22.2884 22.4617 22.2431 22.3913C21.7325 21.5971 20.9454 20.9447 19.8817 20.4341C21.0459 20.0174 21.8925 19.336 22.4213 18.3899C22.5045 18.2411 22.5798 18.0857 22.6473 17.9238C23.1437 16.7183 23.3919 15.1937 23.3919 13.35C23.3919 6.71256 20.2008 3.39386 13.8187 3.39386C10.5142 3.39386 8.06062 4.19517 6.458 5.79779C5.13544 7.12035 4.3586 9.0659 4.12748 11.6344C4.1158 11.7643 4.10551 11.8957 4.09662 12.0287C4.06825 12.4529 4.05407 12.8933 4.05407 13.35V14.052C4.06825 14.2931 4.08244 14.4987 4.09662 14.6689H11.8403V13.5414C11.8403 12.5912 11.975 11.8112 12.2445 11.2013C12.5281 10.5773 13.067 10.2653 13.8613 10.2653C15.0809 10.2653 15.6908 11.3219 15.6908 13.4351C15.6908 14.6395 15.4188 15.538 14.8747 16.1304C14.8102 16.2007 14.7418 16.2666 14.6697 16.3283C14.0115 16.8767 13.0684 17.1601 11.8403 17.1783C11.798 17.1789 11.7555 17.1792 11.7126 17.1792V23.9017C11.7977 23.8875 11.897 23.8804 12.0104 23.8804C12.0615 23.8748 12.1148 23.8702 12.1704 23.8668C12.2538 23.8617 12.3423 23.8592 12.4359 23.8592C12.5278 23.8592 12.6174 23.8617 12.7048 23.8668C12.8234 23.8738 12.9379 23.8854 13.0484 23.9017C13.6997 23.998 14.2092 24.2577 14.5769 24.6809C14.7325 24.8599 14.8627 25.0682 14.9675 25.3058C15.4071 26.2702 15.627 27.3977 15.627 28.6883V29.6243C15.627 31.3121 15.5064 32.5318 15.2653 33.2834C15.0242 34.0209 14.464 34.3897 13.5847 34.3897C12.7196 34.3897 12.1594 34.0493 11.9041 33.3685C11.663 32.6736 11.5424 31.8297 11.5424 30.8369V26.9013H3.86261V30.8157C3.86261 34.3329 4.61428 36.9638 6.11762 38.7082C7.62096 40.4527 10.0249 41.3249 13.3294 41.3249C16.9601 41.3249 19.5555 40.3108 21.1156 38.2827Z" fill="black"/>
</svg>
