<svg width="37" height="41" viewBox="0 0 37 41" fill="none" xmlns="http://www.w3.org/2000/svg">
<path fill-rule="evenodd" clip-rule="evenodd" d="M2.90077 27.9287C4.7581 26.1179 7.27718 25.1006 9.90384 25.1006H26.584C29.2106 25.1006 31.7297 26.1179 33.5871 27.9287C35.4444 29.7395 36.4878 32.1955 36.4878 34.7564V38.822C36.4878 39.664 35.7877 40.3466 34.9241 40.3466C34.0604 40.3466 33.3603 39.664 33.3603 38.822V34.7564C33.3603 33.0042 32.6464 31.3238 31.3756 30.0848C30.1048 28.8458 28.3812 28.1498 26.584 28.1498H9.90384C8.10665 28.1498 6.38307 28.8458 5.11226 30.0848C3.84146 31.3238 3.12753 33.0042 3.12753 34.7564V38.822C3.12753 39.664 2.42741 40.3466 1.56376 40.3466C0.700121 40.3466 0 39.664 0 38.822V34.7564C0 32.1955 1.04344 29.7395 2.90077 27.9287Z" fill="#F97316"/>
<path fill-rule="evenodd" clip-rule="evenodd" d="M18.2439 3.75623C14.5015 3.75623 11.4676 6.7141 11.4676 10.3628C11.4676 14.0115 14.5015 16.9694 18.2439 16.9694C21.9864 16.9694 25.0202 14.0115 25.0202 10.3628C25.0202 6.7141 21.9864 3.75623 18.2439 3.75623ZM8.34009 10.3628C8.34009 5.03008 12.7742 0.707031 18.2439 0.707031C23.7137 0.707031 28.1478 5.03008 28.1478 10.3628C28.1478 15.6956 23.7137 20.0186 18.2439 20.0186C12.7742 20.0186 8.34009 15.6956 8.34009 10.3628Z" fill="#F97316"/>
</svg>
