<?xml version="1.0" encoding="utf-8"?>
<!-- Generator: Adobe Illustrator 24.1.2, SVG Export Plug-In . SVG Version: 6.00 Build 0)  -->
<svg version="1.1" id="Layer_1" xmlns="http://www.w3.org/2000/svg" xmlns:xlink="http://www.w3.org/1999/xlink" x="0px" y="0px"
	 viewBox="0 0 24 24" style="enable-background:new 0 0 24 24;" xml:space="preserve">
<style type="text/css">
	.st0{clip-path:url(#SVGID_2_);}
	.st1{fill:#FFFFFF;filter:url(#Adobe_OpacityMaskFilter);}
	.st2{mask:url(#mask0_1271_134_1_);}
	.st3{fill-rule:evenodd;clip-rule:evenodd;fill:#FFFFFF;}
</style>
<g>
	<defs>
		<rect id="SVGID_1_" width="24" height="24"/>
	</defs>
	<clipPath id="SVGID_2_">
		<use xlink:href="#SVGID_1_"  style="overflow:visible;"/>
	</clipPath>
	<g class="st0">
		<defs>
			<filter id="Adobe_OpacityMaskFilter" filterUnits="userSpaceOnUse" x="0" y="0" width="23.9" height="24">
				<feColorMatrix  type="matrix" values="1 0 0 0 0  0 1 0 0 0  0 0 1 0 0  0 0 0 1 0"/>
			</filter>
		</defs>
		<mask maskUnits="userSpaceOnUse" x="0" y="0" width="23.9" height="24" id="mask0_1271_134_1_">
			<path class="st1" d="M0,0h24v24H0V0z"/>
		</mask>
		<g class="st2">
			<path class="st3" d="M17.4,14.4c-0.3-0.1-1.8-0.9-2-1c-0.3-0.1-0.5-0.1-0.7,0.1c-0.2,0.3-0.8,1-0.9,1.2c-0.2,0.2-0.3,0.2-0.6,0.1
				c-0.3-0.1-1.3-0.5-2.4-1.5c-0.9-0.8-1.5-1.8-1.7-2.1c-0.2-0.3,0-0.5,0.1-0.6c0.1-0.1,0.3-0.3,0.4-0.5C9.8,10,9.9,9.8,10,9.6
				c0.1-0.2,0-0.4,0-0.5C9.9,9,9.3,7.5,9,6.9C8.8,6.3,8.5,6.4,8.4,6.4c-0.2,0-0.4,0-0.6,0S7.3,6.5,7,6.8c-0.3,0.3-1,1-1,2.5
				c0,1.5,1.1,2.9,1.2,3.1c0.1,0.2,2.1,3.2,5.1,4.5c0.7,0.3,1.3,0.5,1.7,0.6c0.7,0.2,1.4,0.2,1.9,0.1c0.6-0.1,1.8-0.7,2-1.4
				c0.2-0.7,0.2-1.3,0.2-1.4C17.9,14.6,17.7,14.5,17.4,14.4L17.4,14.4z M12,21.8L12,21.8c-1.8,0-3.5-0.5-5-1.4l-0.4-0.2l-3.7,1
				l1-3.6l-0.2-0.4c-1-1.6-1.5-3.4-1.5-5.3C2.1,6.4,6.5,2,12,2c2.6,0,5.1,1,7,2.9c0.9,0.9,1.6,2,2.1,3.2s0.7,2.5,0.7,3.8
				C21.9,17.4,17.4,21.8,12,21.8z M20.4,3.5c-1.1-1.1-2.4-2-3.9-2.6C15.1,0.3,13.6,0,12,0C5.4,0,0.1,5.3,0.1,11.9
				c0,2.1,0.5,4.1,1.6,5.9L0,24l6.3-1.7c1.7,1,3.7,1.4,5.7,1.4h0c6.6,0,11.9-5.3,11.9-11.9c0-1.6-0.3-3.1-0.9-4.6
				C22.4,5.9,21.5,4.6,20.4,3.5z"/>
		</g>
	</g>
</g>
</svg>
