<svg width="44" height="44" viewBox="0 0 44 44" fill="none" xmlns="http://www.w3.org/2000/svg">
<g opacity="0.3">
<path d="M5.5 42.1663V29.333C5.5 26.7969 6.39406 24.6348 8.18217 22.8467C9.97028 21.0586 12.1318 20.1651 14.6667 20.1663H16.5V5.49968C16.5 4.49134 16.8593 3.62784 17.578 2.90918C18.2967 2.19051 19.1596 1.83179 20.1667 1.83301H23.8333C24.8417 1.83301 25.7052 2.19234 26.4238 2.91101C27.1425 3.62968 27.5012 4.49257 27.5 5.49968V20.1663H29.3333C31.8694 20.1663 34.0316 21.0604 35.8197 22.8485C37.6078 24.6366 38.5012 26.7981 38.5 29.333V42.1663H5.5ZM9.16667 38.4997H12.8333V32.9997C12.8333 32.4802 13.0093 32.0445 13.3613 31.6925C13.7133 31.3405 14.1484 31.1651 14.6667 31.1663C15.1861 31.1663 15.6218 31.3423 15.9738 31.6943C16.3258 32.0463 16.5012 32.4815 16.5 32.9997V38.4997H20.1667V32.9997C20.1667 32.4802 20.3427 32.0445 20.6947 31.6925C21.0467 31.3405 21.4818 31.1651 22 31.1663C22.5194 31.1663 22.9552 31.3423 23.3072 31.6943C23.6592 32.0463 23.8346 32.4815 23.8333 32.9997V38.4997H27.5V32.9997C27.5 32.4802 27.676 32.0445 28.028 31.6925C28.38 31.3405 28.8151 31.1651 29.3333 31.1663C29.8528 31.1663 30.2885 31.3423 30.6405 31.6943C30.9925 32.0463 31.1679 32.4815 31.1667 32.9997V38.4997H34.8333V29.333C34.8333 27.8052 34.2986 26.5066 33.2292 25.4372C32.1597 24.3677 30.8611 23.833 29.3333 23.833H14.6667C13.1389 23.833 11.8403 24.3677 10.7708 25.4372C9.70139 26.5066 9.16667 27.8052 9.16667 29.333V38.4997ZM23.8333 20.1663V5.49968H20.1667V20.1663H23.8333Z" fill="black"/>
</g>
</svg>
