<svg width="44" height="44" viewBox="0 0 44 44" fill="none" xmlns="http://www.w3.org/2000/svg">
<g opacity="0.3">
<path d="M35.75 27.5H27.5V24.75H35.75V27.5ZM41.25 38.5H33V35.75H41.25V38.5ZM38.5 33H30.25V30.25H38.5V33Z" fill="black"/>
<path d="M23.3792 27.5C23.3695 26.3398 23.06 25.2018 22.4809 24.1964C21.9017 23.1911 21.0725 22.3525 20.0737 21.7621L30.25 4.125L27.8713 2.75L17.4529 20.7983C16.1743 20.5126 14.8445 20.5521 13.5851 20.9131C12.3257 21.2742 11.1769 21.9452 10.2438 22.8649C5.09579 27.83 5.49454 39.4378 5.51379 39.93C5.528 40.2851 5.67912 40.6208 5.93546 40.8669C6.1918 41.113 6.53345 41.2503 6.88879 41.25H27.5014C27.79 41.25 28.0713 41.1592 28.3054 40.9905C28.5395 40.8217 28.7146 40.5836 28.8059 40.3098C28.8971 40.036 28.8999 39.7405 28.8139 39.465C28.7278 39.1896 28.5573 38.9482 28.3264 38.775C23.4589 35.123 23.3792 27.5743 23.3792 27.5ZM16.4038 23.3709C17.5043 23.383 18.5578 23.8189 19.345 24.588C20.1323 25.3571 20.5927 26.4001 20.6305 27.5C20.6305 27.5522 20.6333 27.786 20.6539 28.1449L12.5414 24.5369C13.0758 24.0962 13.6924 23.7662 14.3555 23.566C15.0186 23.3659 15.7148 23.2995 16.4038 23.3709ZM21.2438 38.5C20.1447 37.3809 19.4442 35.9315 19.25 34.375H16.5C16.5985 35.8384 17.0556 37.255 17.831 38.5H14.7744C14.2089 36.7156 13.8649 34.8684 13.75 33H11C11.0887 34.8628 11.3956 36.7087 11.9144 38.5H8.25004C8.29266 35.9755 8.64879 30.3985 10.7292 26.7396L21.087 31.3459C21.5847 33.9299 22.6457 36.3726 24.1945 38.5H21.2438Z" fill="black"/>
</g>
</svg>
