<svg width="44" height="44" viewBox="0 0 44 44" fill="none" xmlns="http://www.w3.org/2000/svg">
<g opacity="0.3">
<path d="M37.8767 36.6663L25.4284 6.98467C24.75 5.44467 23.705 4.19801 22.2934 3.24467C20.9 2.30967 19.3417 1.83301 17.6184 1.83301C16.0784 1.83301 14.6667 2.21801 13.3834 2.98801C12.1 3.75801 11.0734 4.80301 10.3217 6.08634C9.57004 7.36967 9.16671 8.79967 9.16671 10.3397L9.22171 16.4997H3.72171V26.4913C4.85837 25.978 6.06837 25.7213 7.33337 25.7213V20.2213H16.5C17.545 20.2213 18.4067 20.588 19.1217 21.303C19.8367 21.9997 20.1667 22.8613 20.1667 23.833V36.7213H16.335C16.054 38.0445 15.4634 39.2822 14.6117 40.333H23.8334V23.833C23.8334 22.513 23.4667 21.303 22.825 20.1663C22.1834 19.0297 21.285 18.168 20.1667 17.5263C19.1034 16.8663 17.875 16.4997 16.5 16.4997H12.8334V10.3397C12.8334 9.01967 13.2917 7.90134 14.2267 6.94801C15.1617 5.99467 16.2984 5.49967 17.6184 5.49967C18.59 5.49967 19.4884 5.79301 20.2767 6.34301C21.065 6.89301 21.6517 7.58967 22 8.45134L33.8434 36.6663L29.3334 36.7213V40.333H42.1667V36.7213L37.8767 36.6663ZM7.33337 32.9997C8.34171 32.9997 9.16671 33.8247 9.16671 34.833C9.16671 35.8413 8.34171 36.6663 7.33337 36.6663C6.32504 36.6663 5.50004 35.8413 5.50004 34.833C5.50004 33.8247 6.32504 32.9997 7.33337 32.9997ZM7.33337 29.333C4.29004 29.333 1.83337 31.7897 1.83337 34.833C1.83337 37.8763 4.29004 40.333 7.33337 40.333C10.3767 40.333 12.8334 37.8763 12.8334 34.833C12.8334 31.7897 10.3767 29.333 7.33337 29.333Z" fill="black"/>
</g>
</svg>
