<svg width="97" height="24" viewBox="0 0 97 24" fill="none" xmlns="http://www.w3.org/2000/svg">
<g clip-path="url(#clip0_1404_147)">
<path d="M11.5926 9.26476V5.74972C11.5926 3.95729 11.1736 2.56059 10.3123 1.62945C9.45102 0.698318 8.17071 0.209473 6.47139 0.209473H0V23.7905H6.30844C8.26382 23.7905 9.63725 23.1852 10.4054 21.9747C11.1969 20.7643 11.5694 19.0417 11.5694 16.8069V14.7352C10.4287 14.3394 9.61397 13.2686 9.61397 12.0116C9.61397 10.7546 10.452 9.66049 11.5926 9.26476ZM6.86712 18.3666C6.86712 19.2046 6.42483 19.6236 5.56353 19.6236H4.74879V4.32974H5.26091C5.91271 4.32974 6.33172 4.44614 6.54122 4.67892C6.75073 4.9117 6.86712 5.42383 6.86712 6.19201V18.3666Z" fill="#F97316"/>
<path d="M20.2289 13.6411V17.8778C20.2289 18.4132 20.1358 18.8322 19.9729 19.1581C19.8099 19.484 19.5306 19.6469 19.1116 19.6469C18.7624 19.6469 18.4831 19.5073 18.2968 19.2512C18.1106 18.9951 18.0175 18.5296 18.0175 17.8778V6.07565C18.0175 5.54025 18.0873 5.12124 18.2503 4.81862C18.3899 4.49273 18.6926 4.35306 19.1349 4.35306C19.5073 4.35306 19.7866 4.46945 19.9729 4.72551C20.1591 4.98157 20.2289 5.44714 20.2289 6.14549V9.63725H24.9079V5.54025C24.9079 4.3065 24.6518 3.28225 24.163 2.44423C23.6509 1.62949 22.9758 1.02425 22.1145 0.605238C21.2299 0.209505 20.2522 0 19.1349 0C17.0864 0 15.6198 0.605238 14.712 1.81571C13.8041 3.02619 13.3618 4.77207 13.3618 7.07662V9.24151C14.5723 9.59069 15.4336 10.708 15.4336 12.0116C15.4336 13.3152 14.549 14.4326 13.3618 14.7818V17.9476C13.3618 19.8564 13.8739 21.3463 14.9215 22.4171C15.969 23.4879 17.3424 24 19.0417 24C20.904 24 22.3705 23.5344 23.4181 22.6033C24.4656 21.6722 24.9777 20.1591 24.9777 18.0873V13.6411H20.2289Z" fill="#161616"/>
<path d="M36.7099 5.16758C35.6391 4.05022 34.1725 3.46826 32.287 3.46826C30.4014 3.46826 28.9349 4.02694 27.8874 5.16758C26.8166 6.30822 26.3044 7.79804 26.3044 9.70687V17.7612C26.3044 21.9047 28.3064 23.9765 32.3103 23.9765C36.3141 23.9765 38.3161 21.9047 38.3161 17.7612V9.70687C38.3161 7.82132 37.7807 6.30822 36.7099 5.16758ZM33.4276 18.7622C33.4276 19.2044 33.3345 19.5769 33.1716 19.8795C33.0086 20.1821 32.706 20.3218 32.3103 20.3218C31.9145 20.3218 31.6119 20.1821 31.449 19.8795C31.286 19.5769 31.1929 19.2277 31.1929 18.7622V8.93868C31.1929 7.77476 31.5654 7.1928 32.3103 7.1928C33.0552 7.1928 33.4276 7.77476 33.4276 8.93868V18.7622Z" fill="#161616"/>
<path d="M50.9332 4.77201C50.3047 3.91071 49.3037 3.4917 47.907 3.4917C47.0457 3.4917 46.3706 3.77104 45.8818 4.30644C45.3929 4.84184 45.067 5.49364 44.8808 6.26183V3.7012H40.0854V23.7904H44.8808V9.66047C44.8808 9.28801 44.9041 8.91556 44.9506 8.51983C44.9972 8.14737 45.1136 7.82148 45.2765 7.56541C45.4628 7.30935 45.7188 7.19296 46.0913 7.19296C46.487 7.19296 46.7663 7.35591 46.9293 7.70508C47.0922 8.03098 47.1621 8.40344 47.1621 8.79917V23.7904H51.8876V8.28704C51.8643 6.79723 51.5617 5.63331 50.9332 4.77201Z" fill="#161616"/>
<path d="M60.5936 8.12412V4.46941H59.2435V0.209473H54.5878V4.46941H53.2377V8.12412H54.5878V20.6479C54.5878 21.7885 54.8206 22.6265 55.2629 23.1619C55.7052 23.7206 56.5898 23.9767 57.8701 23.9767C58.452 23.9767 59.034 23.9301 59.5927 23.8137C60.1513 23.7206 60.5005 23.6508 60.5936 23.6042V20.3453C60.4307 20.3685 60.2212 20.3918 60.0117 20.3918C59.7091 20.3918 59.4996 20.322 59.4064 20.1823C59.29 20.0426 59.2435 19.8099 59.2435 19.484V8.07756H60.5936V8.12412Z" fill="#161616"/>
<path d="M68.2289 4.12039C67.647 4.56267 67.228 5.16791 66.9952 5.9361V3.70137H62.13V23.7906H66.9952V8.42688C66.9952 8.24066 67.2047 8.07771 67.6237 7.93804C68.0427 7.79837 68.5083 7.68198 69.067 7.58886C69.6024 7.49575 70.0912 7.47247 70.4637 7.47247V3.44531C69.5558 3.44531 68.8109 3.6781 68.2289 4.12039Z" fill="#161616"/>
<path d="M81.8933 5.16758C80.8225 4.05022 79.356 3.46826 77.4704 3.46826C75.5849 3.46826 74.1183 4.02694 73.0708 5.16758C72 6.30822 71.4646 7.79804 71.4646 9.70687V17.7612C71.4646 21.9047 73.4665 23.9765 77.4704 23.9765C81.4743 23.9765 83.4762 21.9047 83.4762 17.7612V9.70687C83.4762 7.82132 82.9408 6.30822 81.8933 5.16758ZM78.5878 18.7622C78.5878 19.2044 78.4947 19.5769 78.3317 19.8795C78.1455 20.1589 77.8661 20.3218 77.4704 20.3218C77.0747 20.3218 76.7721 20.1821 76.6091 19.8795C76.4462 19.6002 76.3531 19.2277 76.3531 18.7622V8.93868C76.3531 7.77476 76.7255 7.1928 77.4704 7.1928C78.2153 7.1928 78.5878 7.77476 78.5878 8.93868V18.7622Z" fill="#161616"/>
<path d="M85.2454 0.209473V23.7905H90.1105V0.209473H85.2454Z" fill="#161616"/>
<path d="M92.0659 0.209473V23.7905H96.9311V0.209473H92.0659Z" fill="#161616"/>
</g>
<defs>
<clipPath id="clip0_1404_147">
<rect width="96.9311" height="24" fill="white"/>
</clipPath>
</defs>
</svg>
