<svg width="44" height="36" viewBox="0 0 44 36" fill="none" xmlns="http://www.w3.org/2000/svg">
<path fill-rule="evenodd" clip-rule="evenodd" d="M42.1666 1.78369C43.1791 1.78369 43.9999 2.58394 43.9999 3.57111V14.2956C43.9999 15.2828 43.1791 16.083 42.1666 16.083H31.1666C30.1541 16.083 29.3333 15.2828 29.3333 14.2956C29.3333 13.3084 30.1541 12.5082 31.1666 12.5082H40.3332V3.57111C40.3332 2.58394 41.154 1.78369 42.1666 1.78369Z" fill="#F97316"/>
<path fill-rule="evenodd" clip-rule="evenodd" d="M0 21.4442C0 20.457 0.82081 19.6567 1.83333 19.6567H12.8333C13.8458 19.6567 14.6666 20.457 14.6666 21.4442C14.6666 22.4313 13.8458 23.2316 12.8333 23.2316H3.66666V32.1686C3.66666 33.1558 2.84585 33.9561 1.83333 33.9561C0.82081 33.9561 0 33.1558 0 32.1686V21.4442Z" fill="#F97316"/>
<path fill-rule="evenodd" clip-rule="evenodd" d="M26.0651 4.13694C23.6851 3.46577 21.1695 3.39334 18.7531 3.9264C16.3366 4.45946 14.0981 5.58063 12.2463 7.18531C10.3945 8.78999 8.9898 10.8259 8.16331 13.103C7.82553 14.0336 6.77792 14.521 5.8234 14.1917C4.86888 13.8624 4.36891 12.841 4.70669 11.9104C5.7398 9.06404 7.49566 6.51919 9.81041 4.51334C12.1252 2.5075 14.9234 1.10603 17.9439 0.439705C20.9645 -0.226617 24.1089 -0.136075 27.0839 0.702884C30.0494 1.53918 32.7501 3.09196 34.9358 5.21707L43.422 12.9915C44.1599 13.6675 44.196 14.7987 43.5027 15.5181C42.8093 16.2375 41.6491 16.2727 40.9112 15.5967L32.4045 7.80357C32.3906 7.79078 32.3768 7.77777 32.3633 7.76456C30.6118 6.05613 28.445 4.80811 26.0651 4.13694ZM0.497291 20.2198C1.19064 19.5004 2.35088 19.4652 3.08876 20.1412L11.5954 27.9343C11.6094 27.9471 11.6231 27.9601 11.6367 27.9733C13.3881 29.6818 15.5549 30.9298 17.9349 31.601C20.3148 32.2721 22.8304 32.3445 25.2469 31.8115C27.6633 31.2784 29.9019 30.1573 31.7537 28.5526C33.6055 26.9479 35.0101 24.912 35.8366 22.6349C36.1744 21.7043 37.222 21.2169 38.1765 21.5462C39.1311 21.8755 39.631 22.8968 39.2933 23.8275C38.2601 26.6739 36.5043 29.2187 34.1895 31.2245C31.8748 33.2304 29.0766 34.6319 26.056 35.2982C23.0355 35.9645 19.891 35.874 16.9161 35.035C13.9505 34.1987 11.2498 32.6459 9.06418 30.5208L0.577914 22.7464C-0.159963 22.0704 -0.196059 20.9392 0.497291 20.2198Z" fill="#F97316"/>
</svg>
