<svg width="41" height="44" viewBox="0 0 41 44" fill="none" xmlns="http://www.w3.org/2000/svg">
<path fill-rule="evenodd" clip-rule="evenodd" d="M17.356 0.879985C18.1946 0.417093 19.1437 0.174316 20.1084 0.174316C21.0731 0.174316 22.0222 0.417093 22.8607 0.879985C22.8617 0.880505 22.8626 0.881025 22.8636 0.881546L37.4431 8.85799C38.2817 9.32154 38.9812 9.98977 39.4692 10.798C39.9573 11.6065 40.2158 12.5255 40.2168 13.4627V29.4184C40.2158 30.3555 39.9573 31.2745 39.4692 32.083C38.9812 32.8912 38.2817 33.5595 37.4431 34.023L37.4379 34.0259L22.8636 41.9995C22.8627 42 22.8618 42.0004 22.8609 42.0009C22.0223 42.4639 21.0732 42.7067 20.1084 42.7067C19.1436 42.7067 18.1945 42.4639 17.3559 42.0009C17.355 42.0004 17.3541 42 17.3532 41.9995L2.77892 34.0259L2.77368 34.023C1.93511 33.5595 1.23554 32.8912 0.747567 32.083C0.259479 31.2745 0.00100402 30.3555 0 29.4184V13.4627C0.00100402 12.5255 0.259478 11.6065 0.747567 10.798C1.23554 9.98977 1.93512 9.32154 2.77368 8.858L2.77892 8.85511L17.3532 0.881546C17.3542 0.881025 17.3551 0.880505 17.356 0.879985ZM20.1084 2.83259C19.6118 2.83259 19.1252 2.95783 18.698 3.194L18.6928 3.19689L4.11846 11.1705C4.11767 11.1709 4.11688 11.1713 4.11609 11.1718C3.69048 11.4076 3.34 11.7445 3.09729 12.1465C2.85435 12.5489 2.72717 13.0034 2.72656 13.4648V29.4162C2.72717 29.8776 2.85435 30.3321 3.09729 30.7345C3.34002 31.1366 3.69053 31.4735 4.11618 31.7093C4.11694 31.7097 4.1177 31.7101 4.11846 31.7106L18.698 39.687C19.1252 39.9232 19.6118 40.0484 20.1084 40.0484C20.605 40.0484 21.0915 39.9232 21.5188 39.687L21.524 39.6841L36.0983 31.7106C36.0991 31.7101 36.0999 31.7097 36.1007 31.7092C36.5263 31.4735 36.8768 31.1365 37.1195 30.7345C37.3625 30.332 37.4897 29.8772 37.4902 29.4156V13.4654C37.4897 13.0038 37.3625 12.549 37.1195 12.1465C36.8768 11.7445 36.5263 11.4076 36.1008 11.1718C36.1 11.1714 36.0991 11.1709 36.0983 11.1705L21.5188 3.19401C21.0915 2.95784 20.605 2.83259 20.1084 2.83259Z" fill="#F97316"/>
<path fill-rule="evenodd" clip-rule="evenodd" d="M0.858267 10.8172C1.22915 10.1784 2.06099 9.95366 2.71622 10.3153L20.1081 19.9132L37.5001 10.3153C38.1553 9.95366 38.9871 10.1784 39.358 10.8172C39.7289 11.456 39.4984 12.267 38.8432 12.6286L20.7797 22.5972C20.363 22.8271 19.8532 22.8271 19.4366 22.5972L1.37312 12.6286C0.717889 12.267 0.48738 11.456 0.858267 10.8172Z" fill="#F97316"/>
<path fill-rule="evenodd" clip-rule="evenodd" d="M20.4492 20.1113C21.2021 20.1113 21.8125 20.7064 21.8125 21.4405V42.0421C21.8125 42.7761 21.2021 43.3712 20.4492 43.3712C19.6963 43.3712 19.0859 42.7761 19.0859 42.0421V21.4405C19.0859 20.7064 19.6963 20.1113 20.4492 20.1113Z" fill="#F97316"/>
</svg>
